inDegrees=no
num_controls=7
num_derivatives=13
num_iterations=110
num_multipliers=7
num_parameters=0
num_slacks=7
num_states=26
objective=0.451057
objective_accelerations=0.044230
objective_balance=0.007631
objective_effort=0.035127
objective_height=0.359060
objective_ligament=0.005009
solver_duration=1785.072779
status=Solve_Succeeded
success=true
DataType=double
version=3
OpenSimVersion=4.5
endheader
time	/jointset/ground_pelvis/pelvis_tilt/value	/jointset/ground_pelvis/pelvis_tx/value	/jointset/ground_pelvis/pelvis_ty/value	/jointset/hip_l/hip_flexion_l/value	/jointset/hip_l/hip_adduction_l/value	/jointset/hip_l/hip_rotation_l/value	/jointset/back/lumbar_extension/value	/jointset/patellofemoral_l/patellar_flexion_l/value	/jointset/knee_l/knee_flexion_l/value	/jointset/knee_l/knee_adduction_l/value	/jointset/knee_l/knee_rotation_l/value	/jointset/ankle_l/ankle_angle_l/value	/jointset/subtalar_l/subtalar_angle_l/value	/jointset/ground_pelvis/pelvis_tilt/speed	/jointset/ground_pelvis/pelvis_tx/speed	/jointset/ground_pelvis/pelvis_ty/speed	/jointset/hip_l/hip_flexion_l/speed	/jointset/hip_l/hip_adduction_l/speed	/jointset/hip_l/hip_rotation_l/speed	/jointset/back/lumbar_extension/speed	/jointset/patellofemoral_l/patellar_flexion_l/speed	/jointset/knee_l/knee_flexion_l/speed	/jointset/knee_l/knee_adduction_l/speed	/jointset/knee_l/knee_rotation_l/speed	/jointset/ankle_l/ankle_angle_l/speed	/jointset/subtalar_l/subtalar_angle_l/speed	/forceset/tau_hip_flexion_l	/forceset/tau_hip_adduction_l	/forceset/tau_hip_rotation_l	/forceset/tau_knee_flexion_l	/forceset/tau_ankle_angle_l	/forceset/tau_subtalar_angle_l	/forceset/tau_lumbar_extension	lambda_cid13_p0	lambda_cid13_p1	lambda_cid13_p2	lambda_cid13_p3	lambda_cid13_p4	lambda_cid13_p5	lambda_cid14_p0	/jointset/ground_pelvis/pelvis_tilt/accel	/jointset/ground_pelvis/pelvis_tx/accel	/jointset/ground_pelvis/pelvis_ty/accel	/jointset/hip_l/hip_flexion_l/accel	/jointset/hip_l/hip_adduction_l/accel	/jointset/hip_l/hip_rotation_l/accel	/jointset/back/lumbar_extension/accel	/jointset/patellofemoral_l/patellar_flexion_l/accel	/jointset/knee_l/knee_flexion_l/accel	/jointset/knee_l/knee_adduction_l/accel	/jointset/knee_l/knee_rotation_l/accel	/jointset/ankle_l/ankle_angle_l/accel	/jointset/subtalar_l/subtalar_angle_l/accel	gamma_cid13_p0	gamma_cid13_p1	gamma_cid13_p2	gamma_cid13_p3	gamma_cid13_p4	gamma_cid13_p5	gamma_cid14_p0
0	-0.160094367046998	0.05854737363076391	0.8979962708180241	0.3774924667018715	-0.2591727487398546	-0.2723627226785965	-0.01265067647494873	0.0322364824372168	0.03223648243721463	-0.174532797811316	0.1739475474124997	-0.04231377076293093	-0.00930422881114946	0	0	0	0	0	0	0	0	0	0	0	0	0	0.1556907130222069	-0.0790244755545494	-0.05384230585674878	-0.3207018141744966	0.3351537175639759	-0.05308717277783904	-0.09651427075361189	64.8754521778486	5.43628706403935	5.881599842694386	-12.02594112253928	-594.0333569827782	-68.39197174782703	-39.0558438065384	-4.232228679925551	-1.929032314779649	-1.024185456269496	11.49563491564002	-1.109415392102394	2.673621758377818	-5.506928672939743	7.911669468709476	7.911669468710142	0.04307493706804774	0.06522519582121938	0.7094633610582335	-0.9706921654703651	-4.702903045823612e-08	3.13649277507182e-08	9.414906219302407e-08	2.678697813058958e-08	-5.702631766075048e-08	-6.833856176605301e-08	-1.507990591305583e-08
0.01	-0.1602984753304382	0.05845013262951537	0.8979460508624846	0.3780549861376892	-0.2592279376737527	-0.2722296793095874	-0.0129278981556613	0.03262299276765774	0.03262299276767346	-0.1745323322309129	0.1739483526591905	-0.04228301546129382	-0.009353568214750353	-0.0405296356466207	-0.0195618243452843	-0.01002035219688861	0.1121492002788601	-0.01097012702573346	0.026472134931509	-0.05517348747777279	0.07696876580215736	0.07696876580216772	0.0001204592905245479	0.0001698200342344972	0.005872890872692588	-0.009865227196537251	0.1427980790045075	-0.0880355106795922	-0.05038151895622052	-0.2986033462766096	0.2983465607595899	-0.03122481630225725	-0.08753055356259069	53.83254803570647	-1.870462891730634	6.755749401030984	-3.881495983212961	-594.2066224335864	-81.51347441280089	-39.06685210641643	-3.91953229008378	-1.986795751503413	-0.9874256700129884	11.02135375889029	-1.080681789828105	2.613515628786049	-5.481931485384192	7.53948810896715	7.539488108968248	0.0006519933289062113	-0.005835964131355214	0.4844722332556603	-0.9940551558783601	-4.670535243078842e-08	7.04319363917632e-08	9.220659312600403e-08	2.319368271125807e-08	-8.719036863900454e-08	-7.117297009459971e-09	-1.517607424013881e-08
0.02	-0.1608991202269575	0.05815386573339381	0.8977963342712532	0.3797283558112666	-0.2593908019643103	-0.2718360133376036	-0.01374872925118892	0.03376919235072696	0.03376919235072686	-0.1745298379440098	0.1739511168319252	-0.04220187719435305	-0.009501483322143166	-0.0793073226153498	-0.03980517897460395	-0.01989932713841475	0.2221700475529842	-0.02153507133222882	0.05212452059296273	-0.1087218829630636	0.1519378505242434	0.1519378505242576	0.0004057413124104914	0.0003917852142335365	0.0100765930606177	-0.01971514075839621	0.1299054449867228	-0.09704654580467158	-0.04692073205584732	-0.2765048783787969	0.2615394039551536	-0.009362459826720534	-0.07854683637157922	42.85711903732064	-9.188250850522408	7.630774944312784	4.172951627853384	-593.3250555378318	-94.54401454809418	-39.09958449695629	-3.88183894434716	-2.065338371586776	-0.9959100051970016	11.06996431469281	-1.028378848254777	2.509671904366755	-5.181910274443299	7.511733252695212	7.511733252694591	0.07603948334032576	0.07565422497413601	0.3756256241046713	-0.9676294385347243	-4.638167440334071e-08	1.094989450328082e-07	9.026412405898398e-08	1.960038729192655e-08	-1.173544196172586e-07	5.410396774713307e-08	-1.527224256722179e-08
0.03	-0.1618801117582476	0.0576545232409321	0.8975485270934996	0.3824894391545761	-0.2596572975860923	-0.2711896152857585	-0.01509513879115985	0.03565533507160137	0.0356553350715894	-0.1745238609141065	0.1739562760173038	-0.04208339059436435	-0.009746986015782007	-0.1166996571659401	-0.05989854322204082	-0.02963437775816746	0.3294565972186609	-0.03170678712636641	0.07705047136045864	-0.1601444960830281	0.2249643040264055	0.2249643040265003	0.0007764274620536886	0.0006341114356978581	0.01370237157414212	-0.02930988833301199	0.1253689300423928	-0.09141805732918692	-0.04654164962733109	-0.2742687896015409	0.2621487609678271	-0.01336431846167722	-0.07444771923527972	42.94261192569252	-7.578336647552607	7.503324169998507	2.85650248727061	-593.4825043763823	-90.59441496060796	-39.15316169253526	-3.639238035206457	-1.956615101531983	-0.9581665850166541	10.46948807912489	-1.002991313432091	2.468351819536608	-5.060107488445369	7.149146010331733	7.149146010344289	0.01562041832018173	-0.002380041095550674	0.3682986386610455	-0.9440981258278772	-6.583197172971357e-08	1.139127638134673e-07	1.191449120683562e-07	3.595080442136818e-08	-2.156573354745883e-07	4.662459532459261e-08	-2.047986264796099e-08
0.04	-0.1632292881000061	0.05695919117595388	0.8972041966106178	0.3863056855518667	-0.2600237950395041	-0.2702970986949236	-0.01694330859386648	0.03826195124975983	0.03826195124976026	-0.1745145695752125	0.1739636780925492	-0.04192619727450348	-0.01008617632694763	-0.1529442847081814	-0.07900309347790838	-0.0392039881640787	0.4332026583491227	-0.04153543765806383	0.1013482283917774	-0.209073935509879	0.2960325419827684	0.2960325419829513	0.001068603113451474	0.0008403631840362505	0.01781793703505452	-0.03845266426374359	0.1208324150981082	-0.08578956885368187	-0.0461625671987128	-0.2720327008242613	0.2627581179805216	-0.01736617709661066	-0.07034860209896621	43.08989377493029	-5.978166511344997	7.376201306223492	1.457536395516528	-592.690498776272	-86.55765882873641	-39.2263365573091	-3.652297542677277	-1.867575573272955	-0.9628219624287122	10.36186660764985	-0.959765795766791	2.384033157131313	-4.683275535820536	7.120090143535359	7.120090143536262	0.06033738369114936	0.06843933034896013	0.4735830135822035	-0.8772351097579508	-8.568997988812398e-08	1.176120838341183e-07	1.486612311514685e-07	5.271243211882575e-08	-3.153651763809711e-07	3.772871491897721e-08	-2.579287348650753e-08
0.05	-0.1649353634502693	0.05607703125802684	0.896764757665788	0.3911430447625037	-0.260486625633281	-0.2691649440612918	-0.01926853430401898	0.04156971208169313	0.04156971208168655	-0.1745024208421079	0.1739731765954956	-0.04172625353327378	-0.01051450981461222	-0.1880597826386581	-0.09733374337854452	-0.04867380743384854	0.5337456004655157	-0.05095558325456216	0.1249610073845339	-0.2556163572165076	0.3651802047152011	0.3651802047153316	0.001362265365005303	0.001059976796028292	0.02215456596777777	-0.04714472493712963	0.1137678714477349	-0.08342652297014375	-0.04501701016032208	-0.2652923693744126	0.2546665982034021	-0.0152565747311143	-0.06475018972805797	40.65597993138238	-6.491604121307949	7.48478266596637	2.32038235373789	-591.7883094088089	-86.4533947841402	-39.3176396858301	-3.40953163981724	-1.801527011305301	-0.9376267828101751	9.82195805495229	-0.9218900881951391	2.331624890799237	-4.586498092366056	6.761196586338703	6.761196586330142	0.01407890526560436	-0.001202238163559779	0.4112611476494588	-0.8548298688662151	-9.59805643846907e-08	1.246898560285286e-07	1.625900401411656e-07	6.223004718775044e-08	-3.726203567241721e-07	4.312690624238937e-08	-2.82669904834542e-08
